<svg xmlns="http://www.w3.org/2000/svg" xmlns:xlink="http://www.w3.org/1999/xlink" width="500" zoomAndPan="magnify" viewBox="0 0 375 374.999991" height="500" preserveAspectRatio="xMidYMid meet" version="1.0"><defs><clipPath id="2787efd279"><path d="M 262.011719 113.425781 L 309.261719 113.425781 L 309.261719 187.675781 L 262.011719 187.675781 Z M 262.011719 113.425781 " clip-rule="nonzero"/></clipPath></defs><path fill="#000000" d="M 187.5 0 C 84.050781 0 0 84.050781 0 187.5 C 0 290.949219 84.050781 375 187.5 375 C 290.949219 375 375 290.949219 375 187.5 C 375 84.050781 290.949219 0 187.5 0 Z M 187.5 8.152344 C 286.65625 8.152344 366.847656 88.34375 366.847656 187.5 C 366.847656 286.65625 286.65625 366.847656 187.5 366.847656 C 88.34375 366.847656 8.152344 286.65625 8.152344 187.5 C 8.152344 88.34375 88.34375 8.152344 187.5 8.152344 Z M 187.5 8.152344 " fill-opacity="1" fill-rule="nonzero"/><path fill="#000000" d="M 125.339844 67.425781 C 130.75 65.285156 137 65.203125 142.78125 67.695312 C 154.425781 72.722656 159.679688 86.046875 154.679688 97.652344 C 149.65625 109.277344 136.339844 114.558594 124.71875 109.554688 C 113.136719 104.570312 107.839844 91.167969 112.84375 79.597656 C 115.351562 73.796875 119.945312 69.589844 125.339844 67.425781 Z M 122.226562 59.597656 C 114.789062 62.558594 108.480469 68.363281 105.074219 76.269531 C 98.238281 92.046875 105.539062 110.527344 121.351562 117.34375 C 137.179688 124.160156 155.632812 116.839844 162.464844 101.023438 C 169.257812 85.230469 161.957031 66.746094 146.136719 59.933594 C 138.226562 56.519531 129.660156 56.640625 122.226562 59.597656 Z M 122.226562 59.597656 " fill-opacity="1" fill-rule="evenodd"/><path fill="#000000" d="M 119.046875 223.386719 L 133.726562 242.140625 L 131.664062 249.871094 C 130.691406 253.496094 130.558594 254.878906 129.289062 256.726562 L 98.664062 302.0625 C 96.527344 305.21875 94.210938 306.488281 91.875 306.855469 C 89.558594 307.242188 87.085938 306.617188 85.058594 305.257812 C 83.039062 303.890625 81.558594 301.828125 81.027344 299.546875 C 80.503906 297.246094 80.792969 294.621094 82.9375 291.464844 L 112.238281 248.015625 C 112.511719 247.628906 112.703125 247.195312 112.820312 246.730469 Z M 134.546875 132.960938 C 139.957031 133.257812 144.652344 135.28125 146.65625 138.164062 L 171.613281 173.921875 C 171.941406 174.410156 172.390625 174.820312 172.878906 175.109375 L 194.019531 193.863281 C 196.453125 195.363281 197.351562 196.980469 197.664062 198.734375 C 197.976562 200.484375 197.546875 202.476562 196.515625 204.164062 C 195.480469 205.882812 193.867188 207.1875 192.175781 207.691406 C 190.480469 208.21875 188.648438 208.179688 186.21875 206.679688 L 162.996094 186.601562 C 162.160156 185.878906 161.261719 185.257812 160.753906 184.539062 L 151.546875 171.371094 C 149.171875 168.003906 143.878906 169.65625 143.835938 173.769531 L 143.683594 208.765625 C 143.664062 209.722656 143.992188 210.652344 144.578125 211.414062 L 171.367188 245.535156 C 172.355469 246.777344 172.980469 248.28125 173.253906 249.875 L 180.667969 295.234375 C 181.292969 298.992188 180.417969 301.46875 178.996094 303.339844 C 177.554688 305.191406 175.359375 306.453125 172.941406 306.84375 C 170.546875 307.230469 168.035156 306.765625 166.09375 305.460938 C 164.121094 304.15625 162.566406 302.050781 161.945312 298.3125 L 155.046875 256.457031 C 154.910156 255.753906 154.617188 255.089844 154.191406 254.527344 L 118.953125 209.5 C 117.609375 207.808594 116.871094 205.761719 116.871094 203.65625 L 116.871094 166.109375 C 116.871094 162.640625 112.921875 160.65625 110.113281 162.71875 L 101.976562 168.777344 C 101.21875 169.320312 100.675781 170.121094 100.441406 171.015625 L 91.273438 204.203125 C 89.75 209.738281 85.453125 211.058594 81.558594 210.320312 C 79.609375 209.929688 77.972656 208.933594 77.058594 207.65625 C 76.144531 206.386719 75.65625 204.785156 76.398438 202.027344 L 86.421875 164.359375 C 86.988281 162.238281 88.019531 160.425781 89.363281 159.4375 L 120.296875 136.449219 C 123.316406 134.207031 129.117188 132.671875 134.546875 132.960938 Z M 134.082031 124.722656 C 126.054688 124.570312 119.90625 126.1875 115.253906 129.648438 L 84.316406 152.617188 C 81.105469 155.007812 79.140625 158.59375 78.167969 162.46875 C 75.421875 173.472656 71.414062 187.789062 68.199219 199.84375 C 66.933594 204.65625 67.792969 209.269531 70.167969 212.601562 C 72.542969 215.933594 76.164062 217.914062 79.957031 218.640625 C 87.554688 220.101562 96.796875 216.050781 99.449219 206.464844 L 108.402344 174.566406 L 108.402344 203.660156 C 108.402344 207.710938 109.808594 211.589844 112.261719 214.726562 L 112.496094 215.011719 L 104.785156 243.875 L 75.914062 286.703125 C 72.644531 291.550781 71.707031 296.871094 72.757812 301.464844 C 73.808594 306.042969 76.671875 309.824219 80.351562 312.292969 C 84.015625 314.765625 88.589844 315.972656 93.238281 315.238281 C 97.875 314.472656 102.449219 311.652344 105.695312 306.800781 L 136.300781 261.480469 C 138.519531 258.191406 138.988281 255.289062 139.863281 252.039062 L 140.269531 250.5 L 146.832031 258.894531 L 153.546875 299.695312 C 154.5 305.421875 157.480469 309.917969 161.371094 312.53125 C 165.285156 315.117188 169.9375 315.914062 174.300781 315.195312 C 178.664062 314.492188 182.847656 312.234375 185.726562 308.515625 C 188.585938 304.792969 189.972656 299.632812 189.035156 293.886719 L 181.636719 248.507812 C 181.109375 245.292969 179.667969 242.410156 178.015625 240.308594 L 152.144531 207.339844 L 152.238281 187.144531 L 153.796875 189.386719 C 155.117188 191.3125 157.105469 192.601562 158.566406 193.863281 L 181.773438 213.902344 C 185.957031 216.476562 190.609375 216.964844 194.523438 215.8125 L 297.972656 314.207031 C 302.066406 318.121094 307.925781 311.945312 303.816406 308.046875 L 201.863281 211.097656 C 202.566406 210.320312 203.191406 209.5 203.730469 208.605469 C 205.761719 205.292969 206.734375 201.261719 205.988281 197.210938 C 205.269531 193.15625 202.679688 189.222656 198.4375 186.636719 L 178.054688 168.347656 L 153.566406 133.292969 C 149.378906 127.292969 142.097656 124.898438 134.082031 124.722656 Z M 134.082031 124.722656 " fill-opacity="1" fill-rule="nonzero"/><g clip-path="url(#2787efd279)"><path fill="#000000" d="M 299.136719 113.429688 L 272.136719 113.429688 C 266.550781 113.429688 262.011719 117.96875 262.011719 123.554688 L 262.011719 177.546875 C 262.011719 183.132812 266.550781 187.671875 272.136719 187.671875 L 299.136719 187.671875 C 304.722656 187.671875 309.261719 183.132812 309.261719 177.546875 L 309.261719 123.554688 C 309.261719 117.96875 304.722656 113.429688 299.136719 113.429688 Z M 292.386719 180.921875 L 278.886719 180.921875 L 278.886719 177.546875 L 292.386719 177.546875 Z M 303.355469 170.796875 L 267.917969 170.796875 L 267.917969 123.554688 L 303.355469 123.554688 Z M 303.355469 170.796875 " fill-opacity="1" fill-rule="nonzero"/></g></svg>